PathFileType	4	(X/Y/Z)	\\Move.snu.ac.kr\motion\Animal\091204_091205_Bird\091205_bird\Project 2\Capture day 2\Session 1\pigeon_009.trc
DataRate	CameraRate	NumFrames	NumMarkers	Units	OrigDataRate	OrigDataStartFrame	OrigNumFrames
240.0	240.0	12	14	mm	240.0	217	2292
Frame#	Time	14MarkersBird:Head			14MarkersBird:C_back			14MarkersBird:Spine			14MarkersBird:L-shoulder			14MarkersBird:L-elbow			14MarkersBird:L-wrist			14MarkersBird:L-hand			14MarkersBird:R-shoulder			14MarkersBird:R-elbow			14MarkersBird:R-Wrist			14MarkersBird:R-hand			14MarkersBird:C_Tail			14MarkersBird:L-Tale			14MarkersBird:R-Tale			
		X1	Y1	Z1	X2	Y2	Z2	X3	Y3	Z3	X4	Y4	Z4	X5	Y5	Z5	X6	Y6	Z6	X7	Y7	Z7	X8	Y8	Z8	X9	Y9	Z9	X10	Y10	Z10	X11	Y11	Z11	X12	Y12	Z12	X13	Y13	Z13	X14	Y14	Z14	

983	4.092	-213.25887	1947.35730	-3177.31738	-184.08990	1960.36243	-3125.34717	-177.13701	1958.40320	-3082.24414	-217.21396	1954.01697	-3142.06567	-222.83461	1976.67725	-3116.50659	-265.89169	1983.29980	-3123.07373	-285.93726	2003.19739	-3116.47876	-178.52911	1941.25000	-3159.76733	-150.55725	1958.25024	-3151.95386	-127.57839	1946.20630	-3187.46802	-95.83907	1953.19189	-3209.33496	-133.01151	1929.92627	-2960.55347	-230.71825	1963.12341	-3000.74878	-60.97122	1908.62915	-3062.64966	
984	4.096	-219.46434	1941.29285	-3191.05542	-191.17152	1954.25000	-3138.53906	-184.05603	1952.23621	-3095.95361	-223.95316	1947.38953	-3155.51904	-234.10953	1966.63342	-3129.17871	-276.89722	1966.16541	-3137.24585	-300.76172	1981.07104	-3131.13965	-184.97002	1934.55640	-3173.49609	-155.78911	1947.05261	-3167.62476	-136.74783	1929.20654	-3202.60303	-106.00852	1927.90173	-3226.31421	-141.69762	1920.14722	-2974.11304	-238.03319	1954.90247	-3014.50146	-68.77241	1899.54175	-3074.03833	
985	4.100	-225.71617	1935.34912	-3204.98218	-198.11357	1948.41956	-3151.90576	-190.96190	1946.05933	-3109.72852	-230.78268	1940.95032	-3169.14795	-244.69528	1955.90625	-3142.41797	-285.91125	1948.77539	-3152.72388	-312.46506	1957.85901	-3147.55347	-191.37830	1928.37427	-3187.30737	-161.97162	1935.71411	-3183.23242	-148.02560	1912.82410	-3217.12329	-119.65875	1903.39624	-3241.83057	-150.25758	1910.48181	-2988.08252	-245.28368	1946.84607	-3028.33350	-76.32224	1891.57471	-3086.06567	
986	4.104	-232.02698	1929.49670	-3219.07471	-204.88022	1942.85327	-3165.48657	-197.85439	1939.87134	-3123.56836	-237.60616	1934.76477	-3182.98340	-254.47176	1944.86707	-3156.09521	-292.86377	1931.93542	-3169.20361	-320.69699	1934.63318	-3165.45020	-197.77010	1922.62146	-3201.20776	-169.04962	1924.65857	-3198.43555	-161.01120	1897.83936	-3230.84058	-136.31963	1880.97473	-3255.75220	-158.51581	1900.93054	-3002.52148	-252.36455	1938.86816	-3042.10034	-83.46024	1884.74268	-3098.84448	
987	4.108	-238.40530	1923.70032	-3233.31592	-211.49284	1937.51367	-3179.28223	-204.73335	1933.67188	-3137.47290	-244.36812	1928.87659	-3197.04395	-263.26746	1934.16479	-3170.05737	-297.94153	1916.49731	-3186.33789	-325.47977	1912.65979	-3184.39111	-204.19304	1917.18298	-3215.22046	-176.68269	1914.36157	-3213.02002	-174.94357	1884.89856	-3243.73511	-154.98340	1861.63403	-3268.01953	-166.38832	1891.46045	-3017.42285	-259.22833	1930.78699	-3055.78955	-90.15665	1878.76746	-3112.40625	
988	4.113	-244.85760	1917.91357	-3247.69922	-218.00478	1932.31775	-3193.28442	-211.59859	1927.46057	-3151.44189	-251.06180	1923.28125	-3211.31885	-270.89688	1924.42297	-3184.10425	-301.59946	1903.24561	-3203.77832	-327.33466	1893.26282	-3203.90674	-210.67435	1911.93152	-3229.37183	-184.39583	1905.13232	-3226.94043	-188.85175	1874.42871	-3256.03369	-174.28902	1845.96912	-3278.84448	-173.84773	1882.08179	-3032.71875	-265.90591	1922.39221	-3069.51074	-96.58208	1873.10059	-3126.65820	
989	4.117	-251.38557	1912.07581	-3262.23535	-224.48334	1927.12195	-3207.50757	-218.44991	1921.23657	-3165.47461	-257.69351	1917.90564	-3225.77808	-277.41217	1915.96033	-3198.03198	-304.53922	1892.79944	-3221.18359	-327.30011	1877.59106	-3223.53687	-217.19955	1906.72729	-3243.67358	-191.76723	1897.09082	-3240.27710	-201.72842	1866.62842	-3268.19604	-192.73430	1834.16040	-3288.77222	-180.88971	1872.82495	-3048.30396	-272.48691	1913.52197	-3083.37134	-103.02687	1867.10303	-3141.43408	
990	4.121	-257.99774	1906.12866	-3276.94922	-230.99773	1921.74719	-3221.98462	-225.28714	1914.99951	-3179.57202	-264.26184	1912.59924	-3240.39429	-283.23813	1908.86377	-3211.78223	-307.58664	1885.50208	-3238.21802	-326.75952	1866.31348	-3242.70313	-223.74721	1901.41370	-3258.12061	-198.51456	1890.26111	-3253.18628	-212.74763	1861.41211	-3280.76660	-208.90851	1825.98792	-3298.54126	-187.53448	1863.71313	-3064.06348	-279.03006	1904.18774	-3097.40698	-109.78909	1860.22693	-3156.52881	
991	4.125	-264.70834	1900.05737	-3291.84033	-237.60051	1916.03540	-3236.73804	-232.11012	1908.74902	-3193.73242	-270.77383	1907.15979	-3255.15210	-288.83957	1903.11108	-3225.38208	-311.38834	1881.29675	-3254.58276	-327.12357	1859.38403	-3260.66187	-230.30434	1895.85767	-3272.70215	-204.53253	1884.62183	-3265.82959	-221.45177	1858.35229	-3294.11865	-221.75043	1820.81543	-3308.76733	-193.86116	1854.77454	-3079.90845	-285.49094	1894.62341	-3111.56616	-117.07018	1852.20972	-3171.71338	
992	4.129	-271.51089	1893.89111	-3306.86548	-244.30507	1909.89502	-3251.76416	-238.91861	1902.48438	-3207.95679	-277.25540	1901.40076	-3270.03906	-294.28235	1898.50671	-3238.76758	-316.19006	1879.69250	-3270.06934	-329.42865	1856.03015	-3276.67554	-236.88176	1889.98193	-3287.39380	-209.91733	1880.08875	-3278.32080	-227.79062	1856.78394	-3308.30713	-230.74913	1817.70105	-3319.61938	-200.02686	1846.01489	-3095.78833	-291.75446	1885.19299	-3125.72900	-124.91898	1843.20752	-3186.71973	
993	4.133	-278.33807	1887.64954	-3321.94727	-251.08827	1903.30371	-3267.02441	-245.71248	1896.20483	-3222.24390	-283.75079	1895.23389	-3285.03931	-299.21924	1894.71338	-3251.81714	-321.88327	1879.92273	-3284.61621	-334.00064	1855.09326	-3290.25537	-243.54005	1883.74609	-3302.14331	-214.98880	1876.50830	-3290.74927	-232.03447	1856.01807	-3323.12842	-235.95671	1815.73621	-3330.78638	-206.23343	1837.41125	-3111.67627	-297.73224	1876.26062	-3139.75659	-133.17313	1833.81189	-3201.27832	
994	4.137	-285.10165	1881.31909	-3337.03467	-257.91019	1896.29126	-3282.44751	-252.49149	1889.91016	-3236.59424	-290.30136	1888.68445	-3300.12817	-303.38895	1891.42285	-3264.76733	-328.14050	1881.19629	-3298.34277	-340.39615	1855.60681	-3301.30127	-250.35303	1877.16772	-3316.88916	-220.24458	1873.70447	-3303.23511	-234.65211	1855.52795	-3338.25391	-237.79839	1814.40454	-3341.77954	-212.66145	1828.96899	-3127.52637	-303.43704	1868.14636	-3153.57373	-141.44836	1824.91687	-3215.22119	
